<svg version="1.1" id="Layer_1" xmlns="http://www.w3.org/2000/svg" xmlns:xlink="http://www.w3.org/1999/xlink" x="0px" y="0px"
	 width="100%" viewBox="0 0 50 50" enable-background="new 0 0 50 50" xml:space="preserve">
<path fill="#FEF3DF" opacity="1.000000" stroke="none" 
	d="
M28.000162,51.000000 
	C18.666779,51.000000 9.833448,51.000000 1.000090,51.000000 
	C1.000060,34.333382 1.000060,17.666761 1.000030,1.000108 
	C17.666611,1.000072 34.333221,1.000072 50.999874,1.000036 
	C50.999916,17.666603 50.999916,34.333206 50.999958,50.999905 
	C43.500072,51.000000 36.000145,51.000000 28.000162,51.000000 
M25.164923,21.404346 
	C25.444433,21.608437 25.723944,21.812527 26.000069,21.999910 
	C26.000069,21.999910 25.983257,21.996370 26.205368,22.531321 
	C26.796247,23.004230 27.387125,23.477140 28.478947,24.170425 
	C29.322725,24.091616 30.166502,24.012806 31.018511,23.948990 
	C31.018511,23.948990 31.024008,23.956621 31.475819,24.493969 
	C33.548004,24.199970 35.620190,23.905972 37.692375,23.611973 
	C37.719486,23.118217 37.746597,22.624462 37.773708,22.130705 
	C36.536819,21.754715 35.299927,21.378723 33.988525,20.398161 
	C33.656403,19.916386 33.324280,19.434610 33.000259,18.483162 
	C33.000259,18.483162 33.004597,18.013437 32.957024,17.417156 
	C32.649109,16.935913 32.341198,16.454670 31.585028,15.473591 
	C30.373083,15.636409 29.161139,15.799228 27.476732,15.985869 
	C27.476732,15.985869 27.003918,16.001070 26.858095,15.303418 
	C24.070950,13.703841 21.143312,11.503146 19.501755,17.347916 
	C20.020817,18.562014 20.539879,19.776112 21.681431,20.938158 
	C22.453138,20.625235 23.224844,20.312311 24.000153,20.000000 
	C24.000153,20.000000 24.002851,20.003555 24.208517,20.402842 
	C24.384354,20.655931 24.616117,20.837694 25.164923,21.404346 
M10.962898,18.347750 
	C10.536519,18.048731 10.110140,17.749710 9.683761,17.450691 
	C9.470082,17.974329 9.256404,18.497965 8.988949,19.505709 
	C8.988949,19.505709 8.940909,19.990417 8.499876,20.410675 
	C9.347327,20.915762 10.194779,21.420847 11.558708,21.608639 
	C11.405764,20.715496 11.252820,19.822353 10.962898,18.347750 
M42.622009,16.169262 
	C42.543377,16.281435 42.379215,16.471228 42.399525,16.493608 
	C42.575760,16.687801 42.785126,16.851931 43.027561,17.489424 
	C43.027561,17.489424 43.068436,17.954027 43.185089,18.315687 
	C43.466221,18.216164 43.747353,18.116640 44.542934,17.660929 
	C44.548733,16.953745 44.554531,16.246563 44.560329,15.539378 
	C44.040661,15.694139 43.520992,15.848900 42.622009,16.169262 
M28.565517,34.005108 
	C28.979897,32.992153 29.394276,31.979200 29.808657,30.966246 
	C29.196547,30.978245 28.584438,30.990244 27.349926,31.000027 
	C26.935991,30.990469 26.522057,30.980909 25.668020,30.457983 
	C24.791613,30.342823 23.915203,30.227663 22.364906,30.162653 
	C21.206448,31.375141 20.047989,32.587627 17.947502,34.786079 
	C20.174381,34.366982 21.110455,34.190811 22.527605,34.005856 
	C22.527605,34.005856 23.008718,33.999321 23.526623,33.854706 
	C24.364265,33.911713 25.201910,33.968719 26.436743,34.177006 
	C26.920311,34.188000 27.403877,34.198997 28.565517,34.005108 
M36.368690,33.545273 
	C37.214069,33.158916 38.059452,32.772564 38.904831,32.386208 
	C37.957470,31.602760 37.010109,30.819311 35.549358,30.366968 
	C35.667999,31.249735 35.786640,32.132500 36.368690,33.545273 
M15.863824,32.041210 
	C15.469115,32.048355 15.074406,32.055500 14.679697,32.062645 
	C14.807535,32.487362 14.935372,32.912079 15.063210,33.336796 
	C15.358016,33.069950 15.652821,32.803104 15.863824,32.041210 
M40.511078,17.684370 
	C40.511078,17.684370 40.638550,17.451462 40.638550,17.451462 
	C40.638550,17.451462 40.367687,17.490576 40.511078,17.684370 
z"/>
<path fill="#FEF3D8" opacity="1.000000" stroke="none" 
	d="
M33.004597,18.013437 
	C33.004597,18.013437 33.000259,18.483162 32.994514,19.061457 
	C32.988640,20.096516 32.988510,20.553282 32.994583,21.004530 
	C33.000782,20.999014 33.010006,20.985172 32.711182,21.105982 
	C30.269327,21.483316 28.126291,21.739843 25.983257,21.996370 
	C25.983257,21.996370 26.000069,21.999910 26.014557,21.635349 
	C26.029303,20.524952 26.029562,19.779116 26.272108,18.856182 
	C26.678957,18.115997 26.843519,17.552908 27.004211,16.994484 
	C27.000341,16.999147 26.992601,17.008242 27.325766,17.014988 
	C28.102764,17.008482 28.546597,16.995230 29.328590,16.985077 
	C30.117617,16.984043 30.568481,16.979910 31.273804,17.094040 
	C32.020374,17.479347 32.512486,17.746393 33.004597,18.013437 
z"/>
<path fill="#FDF4D8" opacity="1.000000" stroke="none" 
	d="
M19.993221,16.907883 
	C21.143312,11.503146 24.070950,13.703841 26.927916,15.904030 
	C26.996025,16.672510 26.994312,16.840376 26.992601,17.008242 
	C26.992601,17.008242 27.000341,16.999147 26.784603,17.098862 
	C26.293325,17.391308 26.102608,17.647245 25.761911,18.157593 
	C25.321487,18.909847 25.115862,19.470901 24.683445,20.023167 
	C24.456650,20.014378 24.002851,20.003555 24.002851,20.003555 
	C24.002851,20.003555 24.000153,20.000000 23.997658,19.744129 
	C23.993097,19.317890 23.991028,19.147522 23.974136,18.687874 
	C23.281637,17.925129 22.603960,17.451666 21.603769,16.977356 
	C20.851912,16.953636 20.422567,16.930759 19.993221,16.907883 
z"/>
<path fill="#FDF4D7" opacity="1.000000" stroke="none" 
	d="
M34.063038,21.002733 
	C35.299927,21.378723 36.536819,21.754715 37.773708,22.130705 
	C37.746597,22.624462 37.719486,23.118217 37.692375,23.611973 
	C35.620190,23.905972 33.548004,24.199970 31.529724,24.077122 
	C32.059090,22.768574 32.534546,21.876873 33.010006,20.985172 
	C33.010006,20.985172 33.000782,20.999014 33.263321,21.008989 
	C33.704926,21.013554 33.883984,21.008144 34.063038,21.002733 
z"/>
<path fill="#F5DCA8" opacity="1.000000" stroke="none" 
	d="
M36.062752,30.035862 
	C37.010109,30.819311 37.957470,31.602760 38.904831,32.386208 
	C38.059452,32.772564 37.214069,33.158916 36.172180,32.908554 
	C36.004696,31.526512 36.033726,30.781187 36.062752,30.035862 
z"/>
<path fill="#C0D1C2" opacity="1.000000" stroke="none" 
	d="
M26.039551,34.025726 
	C25.201910,33.968719 24.364265,33.911713 23.254845,33.555275 
	C22.980368,32.512844 22.977665,31.769852 22.991158,30.798285 
	C23.007353,30.569712 23.038795,30.112503 23.038795,30.112503 
	C23.915203,30.227663 24.791613,30.342823 25.851868,31.095570 
	C26.036995,32.497345 26.038273,33.261536 26.039551,34.025726 
z"/>
<path fill="#F1DBB1" opacity="1.000000" stroke="none" 
	d="
M32.711182,21.105982 
	C32.534546,21.876873 32.059090,22.768574 31.303820,23.808449 
	C31.024008,23.956621 31.018511,23.948990 30.816774,23.713734 
	C29.736027,23.635670 28.857014,23.792860 27.978003,23.950050 
	C27.387125,23.477140 26.796247,23.004230 26.094313,22.263845 
	C28.126291,21.739843 30.269327,21.483316 32.711182,21.105982 
z"/>
<path fill="#E6F0E5" opacity="1.000000" stroke="none" 
	d="
M19.747488,17.127899 
	C20.422567,16.930759 20.851912,16.953636 21.626186,17.313026 
	C21.981201,18.097267 21.991287,18.544994 21.895576,19.248894 
	C21.546169,20.000113 21.302557,20.495161 21.058943,20.990208 
	C20.539879,19.776112 20.020817,18.562014 19.747488,17.127899 
z"/>
<path fill="#E9DBB6" opacity="1.000000" stroke="none" 
	d="
M22.701851,30.137577 
	C23.038795,30.112503 23.007353,30.569712 22.739862,31.009121 
	C22.330423,32.303902 22.188475,33.159271 22.046528,34.014641 
	C21.110455,34.190811 20.174381,34.366982 17.947502,34.786079 
	C20.047989,32.587627 21.206448,31.375141 22.701851,30.137577 
z"/>
<path fill="#EBC0A1" opacity="1.000000" stroke="none" 
	d="
M27.972328,31.002243 
	C28.584438,30.990244 29.196547,30.978245 29.808655,30.966248 
	C29.394276,31.979200 28.979897,32.992153 28.234486,33.702957 
	C27.926413,32.601284 27.949369,31.801764 27.972328,31.002243 
z"/>
<path fill="#EFEEE3" opacity="1.000000" stroke="none" 
	d="
M27.661127,31.001135 
	C27.949369,31.801764 27.926413,32.601284 27.895451,33.805397 
	C27.403877,34.198997 26.920311,34.188000 26.238148,34.101364 
	C26.038273,33.261536 26.036995,32.497345 26.071918,31.352253 
	C26.522057,30.980909 26.935991,30.990469 27.661127,31.001135 
z"/>
<path fill="#F7D0BD" opacity="1.000000" stroke="none" 
	d="
M11.042232,21.925932 
	C10.194779,21.420847 9.347327,20.915762 9.042132,20.244865 
	C10.070336,20.694683 10.556284,21.310307 11.042232,21.925932 
z"/>
<path fill="#F6E4BB" opacity="1.000000" stroke="none" 
	d="
M31.019346,16.975777 
	C30.568481,16.979910 30.117617,16.984043 29.209152,16.766254 
	C28.484100,16.350239 28.216646,16.156143 27.949194,15.962048 
	C29.161139,15.799228 30.373083,15.636409 31.592468,15.838896 
	C31.326035,16.400946 31.132515,16.658136 31.019346,16.975777 
z"/>
<path fill="#BDC9C0" opacity="1.000000" stroke="none" 
	d="
M43.068436,17.954027 
	C43.068436,17.954027 43.027561,17.489424 43.012314,17.001804 
	C42.998486,16.344009 42.999905,16.173836 43.001324,16.003662 
	C43.520992,15.848900 44.040661,15.694139 44.560329,15.539379 
	C44.554531,16.246563 44.548733,16.953745 44.045620,17.822392 
	C43.548306,17.983854 43.068436,17.954027 43.068436,17.954027 
z"/>
<path fill="#E9BCA9" opacity="1.000000" stroke="none" 
	d="
M11.300470,21.767284 
	C10.556284,21.310307 10.070336,20.694683 9.262650,20.034737 
	C8.940909,19.990417 8.988949,19.505709 9.357977,19.253052 
	C10.184628,18.976667 10.642253,18.952940 11.099876,18.929211 
	C11.252820,19.822353 11.405764,20.715496 11.300470,21.767284 
z"/>
<path fill="#F9F7E9" opacity="1.000000" stroke="none" 
	d="
M21.370186,20.964184 
	C21.302557,20.495161 21.546169,20.000113 22.226921,19.250546 
	C23.105694,18.989737 23.547325,18.983446 23.988956,18.977154 
	C23.991028,19.147522 23.993097,19.317890 23.995857,19.743824 
	C23.224844,20.312311 22.453138,20.625235 21.370186,20.964184 
z"/>
<path fill="#F1DBB1" opacity="1.000000" stroke="none" 
	d="
M24.910238,20.031956 
	C25.115862,19.470901 25.321487,18.909847 25.767395,18.424593 
	C26.015059,18.678022 26.022440,18.855650 26.029821,19.033278 
	C26.029562,19.779116 26.029303,20.524952 26.016247,21.643703 
	C25.723944,21.812527 25.444433,21.608437 25.047981,20.947620 
	C24.931042,20.490896 24.910238,20.031956 24.910238,20.031956 
z"/>
<path fill="#FEE6C9" opacity="1.000000" stroke="none" 
	d="
M28.228474,24.060238 
	C28.857014,23.792860 29.736027,23.635670 30.812660,23.706238 
	C30.166502,24.012806 29.322725,24.091616 28.228474,24.060238 
z"/>
<path fill="#FACBB6" opacity="1.000000" stroke="none" 
	d="
M11.031387,18.638481 
	C10.642253,18.952940 10.184628,18.976667 9.384866,19.011000 
	C9.256404,18.497965 9.470082,17.974329 9.683761,17.450691 
	C10.110140,17.749710 10.536519,18.048731 11.031387,18.638481 
z"/>
<path fill="#F1CBBA" opacity="1.000000" stroke="none" 
	d="
M15.905725,32.288734 
	C15.652821,32.803104 15.358016,33.069950 15.063210,33.336796 
	C14.935372,32.912079 14.807535,32.487362 14.679697,32.062645 
	C15.074406,32.055500 15.469115,32.048355 15.905725,32.288734 
z"/>
<path fill="#F5ECCB" opacity="1.000000" stroke="none" 
	d="
M35.806057,30.201414 
	C36.033726,30.781187 36.004696,31.526512 35.940475,32.643555 
	C35.786640,32.132500 35.667999,31.249735 35.806057,30.201414 
z"/>
<path fill="#F8F4D4" opacity="1.000000" stroke="none" 
	d="
M22.287067,34.010246 
	C22.188475,33.159271 22.330423,32.303902 22.723667,31.237694 
	C22.977665,31.769852 22.980368,32.512844 22.995893,33.627579 
	C23.008718,33.999321 22.527605,34.005856 22.287067,34.010246 
z"/>
<path fill="#EFDBB0" opacity="1.000000" stroke="none" 
	d="
M31.273804,17.094040 
	C31.132515,16.658136 31.326035,16.400946 31.816597,16.088814 
	C32.341198,16.454670 32.649109,16.935913 32.980812,17.715298 
	C32.512486,17.746393 32.020374,17.479347 31.273804,17.094040 
z"/>
<path fill="#F1DBB1" opacity="1.000000" stroke="none" 
	d="
M34.025780,20.700447 
	C33.883984,21.008144 33.704926,21.013554 33.257122,21.014505 
	C32.988510,20.553282 32.988640,20.096516 32.990463,19.296295 
	C33.324280,19.434610 33.656403,19.916386 34.025780,20.700447 
z"/>
<path fill="#ECDEB9" opacity="1.000000" stroke="none" 
	d="
M27.712963,15.973959 
	C28.216646,16.156143 28.484100,16.350239 28.870993,16.763157 
	C28.546597,16.995230 28.102764,17.008482 27.325766,17.014988 
	C26.994312,16.840376 26.996025,16.672510 27.000828,16.252857 
	C27.003918,16.001070 27.476732,15.985869 27.712963,15.973959 
z"/>
<path fill="#F9F7E9" opacity="1.000000" stroke="none" 
	d="
M24.683445,20.023167 
	C24.910238,20.031956 24.931042,20.490896 24.917427,20.719513 
	C24.616117,20.837694 24.384354,20.655931 24.105684,20.203197 
	C24.002851,20.003555 24.456650,20.014378 24.683445,20.023167 
z"/>
<path fill="#C0CBC5" opacity="1.000000" stroke="none" 
	d="
M40.439384,17.587473 
	C40.367687,17.490576 40.638550,17.451462 40.638550,17.451462 
	C40.638550,17.451462 40.511078,17.684370 40.439384,17.587473 
z"/>
<path fill="#C9D5D0" opacity="1.000000" stroke="none" 
	d="
M43.126762,18.134857 
	C43.068436,17.954027 43.548306,17.983854 43.788395,18.000484 
	C43.747353,18.116640 43.466221,18.216164 43.126762,18.134857 
z"/>
<path fill="#C0CBC5" opacity="1.000000" stroke="none" 
	d="
M42.811668,16.086462 
	C42.999905,16.173836 42.998486,16.344009 42.990845,16.769596 
	C42.785126,16.851931 42.575760,16.687801 42.399525,16.493608 
	C42.379215,16.471228 42.543377,16.281435 42.811668,16.086462 
z"/>
<path fill="#ECDEB9" opacity="1.000000" stroke="none" 
	d="
M26.272108,18.856182 
	C26.022440,18.855650 26.015059,18.678022 26.002193,18.233391 
	C26.102608,17.647245 26.293325,17.391308 26.788473,17.094196 
	C26.843519,17.552908 26.678957,18.115997 26.272108,18.856182 
z"/>
<path fill="#DDE1D4" opacity="1.000000" stroke="none" 
	d="
M23.974136,18.687874 
	C23.547325,18.983446 23.105694,18.989737 22.332718,18.994375 
	C21.991287,18.544994 21.981201,18.097267 21.948698,17.313871 
	C22.603960,17.451666 23.281637,17.925129 23.974136,18.687874 
z"/>
</svg>